<?xml version="1.0" standalone="no"?>
<!DOCTYPE svg PUBLIC "-//W3C//DTD SVG 20010904//EN"
 "http://www.w3.org/TR/2001/REC-SVG-20010904/DTD/svg10.dtd">
<svg version="1.0" xmlns="http://www.w3.org/2000/svg"
 width="512.000000pt" height="512.000000pt" viewBox="0 0 512.000000 512.000000"
 preserveAspectRatio="xMidYMid meet">
<metadata>
Created by potrace 1.14, written by Peter Selinger 2001-2017
</metadata>
<g transform="translate(0.000000,512.000000) scale(0.100000,-0.100000)"
fill="#000000" stroke="none">
<path d="M2330 4789 c-113 -14 -133 -17 -240 -39 -479 -99 -950 -387 -1265
-775 -222 -274 -389 -621 -456 -948 -22 -108 -24 -124 -36 -227 -10 -83 -10
-392 0 -490 13 -120 14 -126 21 -138 4 -7 1 -12 -6 -12 -10 0 -10 -2 1 -9 7
-5 11 -13 7 -19 -3 -6 -2 -13 3 -16 5 -3 12 -20 15 -38 3 -18 8 -42 10 -53 9
-40 35 -131 50 -174 9 -24 13 -47 10 -52 -3 -5 0 -9 6 -9 6 0 8 -4 5 -10 -3
-5 -2 -10 3 -10 13 0 36 -76 27 -90 -5 -9 -4 -11 3 -6 8 4 21 -14 38 -51 14
-32 26 -62 27 -68 1 -5 10 -18 19 -28 9 -11 15 -28 13 -38 -2 -10 1 -18 6 -16
5 1 22 -20 37 -48 15 -27 32 -53 37 -57 6 -4 6 -8 2 -8 -4 0 2 -10 13 -22 11
-12 18 -28 15 -36 -2 -7 -1 -11 4 -8 12 8 43 -42 35 -56 -4 -6 -3 -8 4 -4 9 5
72 -62 72 -77 0 -3 16 -22 35 -42 21 -21 33 -41 29 -48 -4 -7 -4 -9 0 -5 11 9
56 -33 49 -46 -3 -6 -3 -8 2 -4 10 10 106 -82 99 -94 -3 -5 -2 -8 3 -7 20 4
27 -2 13 -12 -13 -9 -12 -10 2 -5 11 3 27 -4 41 -17 43 -41 99 -87 106 -87 3
0 14 -8 23 -18 21 -22 46 -42 52 -42 6 0 98 -61 106 -69 3 -4 17 -12 33 -20
15 -8 27 -18 27 -23 0 -5 5 -6 10 -3 6 3 10 1 10 -4 0 -6 3 -10 8 -9 10 3 72
-30 96 -51 10 -9 20 -15 22 -13 12 7 24 0 18 -10 -4 -7 -3 -8 5 -4 13 8 71
-14 71 -27 0 -5 4 -6 8 -3 5 3 25 -4 45 -14 21 -11 37 -17 37 -13 0 4 5 2 12
-5 7 -7 20 -12 30 -12 10 0 18 -5 18 -11 0 -5 4 -8 9 -5 5 4 17 3 26 0 10 -4
13 -9 6 -13 -6 -4 6 -7 27 -7 20 -1 64 -9 97 -18 33 -9 69 -19 79 -21 11 -3
23 -10 28 -17 4 -8 8 -8 8 -2 0 7 19 7 62 -2 34 -7 65 -11 70 -8 4 3 8 1 8 -4
0 -5 12 -7 27 -4 22 4 25 2 20 -14 -6 -16 -5 -17 5 -4 16 19 93 16 81 -3 -4
-7 0 -6 10 2 14 11 17 11 17 0 0 -9 3 -10 8 -4 10 14 32 17 32 5 0 -7 6 -7 19
-1 10 6 20 8 23 6 8 -8 75 -8 208 0 69 5 146 9 172 9 25 1 44 4 41 9 -2 4 5 7
17 7 14 0 19 -4 15 -12 -4 -7 -1 -6 7 2 7 8 18 16 24 17 36 7 65 13 114 24 30
7 64 13 75 13 11 1 22 4 25 8 3 4 15 9 25 11 11 2 27 7 35 10 8 4 42 16 75 27
66 23 100 37 128 52 11 5 21 7 24 4 3 -3 12 2 20 10 9 8 22 13 30 10 8 -3 12
-2 9 2 -3 5 19 20 48 34 41 20 56 24 65 15 9 -9 10 -8 5 7 -6 15 -4 18 9 13
10 -4 16 -2 14 6 -1 8 10 12 30 11 18 -1 30 2 27 7 -2 4 -12 6 -22 3 -14 -5
-13 -2 3 11 11 9 30 18 43 22 12 3 22 10 22 15 0 6 7 7 16 4 8 -3 13 -2 10 3
-8 13 21 34 35 25 7 -4 10 -3 7 2 -3 5 1 16 10 24 9 8 17 13 18 10 2 -3 14 5
28 17 14 13 26 21 26 19 0 -2 19 14 42 35 23 21 46 35 51 32 6 -3 7 -1 4 4 -4
6 6 19 21 29 15 9 32 24 38 32 6 8 16 12 21 9 6 -4 10 1 9 11 0 9 5 16 11 15
7 -2 12 0 10 5 -1 4 25 34 57 67 32 33 66 70 74 83 8 13 21 21 28 18 8 -3 11
0 8 8 -3 8 3 22 14 32 10 11 38 47 61 82 25 37 47 60 53 56 6 -4 8 -3 4 4 -9
15 53 112 73 113 10 0 12 2 3 6 -9 4 -8 12 5 34 10 16 21 29 25 29 4 0 5 6 2
13 -3 8 2 20 11 27 8 7 15 19 15 27 0 8 5 11 12 7 6 -4 8 -3 5 3 -4 6 6 37 22
69 15 33 34 76 40 97 7 20 16 35 21 32 5 -3 7 6 4 21 -3 14 -1 23 4 21 4 -3 8
2 9 11 2 31 9 54 19 60 5 4 9 12 9 17 3 41 19 105 28 105 6 0 7 3 4 7 -4 3 -1
13 6 21 10 13 9 14 -1 8 -11 -7 -12 -4 -3 13 7 11 8 21 4 21 -4 0 -2 5 4 11 6
6 9 18 6 25 -3 8 -1 14 3 14 5 0 10 17 11 38 2 33 9 77 13 77 6 0 13 172 14
320 1 180 -5 277 -23 370 -5 28 -12 70 -16 94 -10 71 -70 267 -115 381 -83
208 -209 421 -360 605 -13 17 -80 86 -150 155 -190 190 -348 304 -585 420
-152 74 -379 156 -485 174 -14 2 -36 7 -50 10 -33 8 -75 15 -125 22 -22 3 -51
8 -65 11 -44 8 -422 10 -490 2z"/>
<path d="M376 1933 c-6 -14 -5 -15 5 -6 7 7 10 15 7 18 -3 3 -9 -2 -12 -12z"/>
<path d="M410 1820 c0 -5 5 -10 11 -10 5 0 7 5 4 10 -3 6 -8 10 -11 10 -2 0
-4 -4 -4 -10z"/>
<path d="M450 1719 c0 -5 5 -7 10 -4 6 3 10 8 10 11 0 2 -4 4 -10 4 -5 0 -10
-5 -10 -11z"/>
<path d="M473 1645 c0 -8 4 -12 9 -9 5 3 6 10 3 15 -9 13 -12 11 -12 -6z"/>
<path d="M490 1579 c0 -5 5 -7 10 -4 6 3 10 8 10 11 0 2 -4 4 -10 4 -5 0 -10
-5 -10 -11z"/>
<path d="M610 1379 c0 -5 5 -7 10 -4 6 3 10 8 10 11 0 2 -4 4 -10 4 -5 0 -10
-5 -10 -11z"/>
<path d="M4470 1376 c0 -2 8 -10 18 -17 15 -13 16 -12 3 4 -13 16 -21 21 -21
13z"/>
<path d="M655 1300 c-3 -5 -1 -10 4 -10 6 0 11 5 11 10 0 6 -2 10 -4 10 -3 0
-8 -4 -11 -10z"/>
<path d="M4455 1300 c-3 -5 -1 -10 4 -10 6 0 11 5 11 10 0 6 -2 10 -4 10 -3 0
-8 -4 -11 -10z"/>
<path d="M4393 1235 c0 -8 4 -12 9 -9 4 3 8 9 8 15 0 5 -4 9 -8 9 -5 0 -9 -7
-9 -15z"/>
<path d="M4435 1240 c3 -5 8 -10 11 -10 2 0 4 5 4 10 0 6 -5 10 -11 10 -5 0
-7 -4 -4 -10z"/>
<path d="M4386 1198 c3 -5 10 -6 15 -3 13 9 11 12 -6 12 -8 0 -12 -4 -9 -9z"/>
<path d="M715 1171 c-3 -5 -2 -12 3 -15 5 -3 9 1 9 9 0 17 -3 19 -12 6z"/>
<path d="M747 1159 c7 -7 15 -10 18 -7 3 3 -2 9 -12 12 -14 6 -15 5 -6 -5z"/>
<path d="M4315 1131 c-3 -5 -2 -12 3 -15 5 -3 9 1 9 9 0 17 -3 19 -12 6z"/>
<path d="M4347 1119 c7 -7 15 -10 18 -7 3 3 -2 9 -12 12 -14 6 -15 5 -6 -5z"/>
<path d="M775 1060 c-3 -5 -1 -10 4 -10 6 0 11 5 11 10 0 6 -2 10 -4 10 -3 0
-8 -4 -11 -10z"/>
<path d="M4280 1040 c-9 -6 -10 -10 -3 -10 6 0 15 5 18 10 8 12 4 12 -15 0z"/>
<path d="M4276 1002 c-3 -5 1 -9 9 -9 8 0 12 4 9 9 -3 4 -7 8 -9 8 -2 0 -6 -4
-9 -8z"/>
<path d="M895 980 c3 -5 8 -10 11 -10 2 0 4 5 4 10 0 6 -5 10 -11 10 -5 0 -7
-4 -4 -10z"/>
<path d="M930 979 c0 -5 5 -7 10 -4 6 3 10 8 10 11 0 2 -4 4 -10 4 -5 0 -10
-5 -10 -11z"/>
<path d="M970 939 c0 -5 5 -7 10 -4 6 3 10 8 10 11 0 2 -4 4 -10 4 -5 0 -10
-5 -10 -11z"/>
<path d="M916 913 c-6 -14 -5 -15 5 -6 7 7 10 15 7 18 -3 3 -9 -2 -12 -12z"/>
<path d="M4055 860 c3 -5 8 -10 11 -10 2 0 4 5 4 10 0 6 -5 10 -11 10 -5 0 -7
-4 -4 -10z"/>
<path d="M1050 780 c0 -5 5 -10 11 -10 5 0 7 5 4 10 -3 6 -8 10 -11 10 -2 0
-4 -4 -4 -10z"/>
<path d="M1090 780 c0 -5 5 -10 11 -10 5 0 7 5 4 10 -3 6 -8 10 -11 10 -2 0
-4 -4 -4 -10z"/>
<path d="M1307 679 c7 -7 15 -10 18 -7 3 3 -2 9 -12 12 -14 6 -15 5 -6 -5z"/>
<path d="M1275 609 c-4 -6 -5 -12 -2 -15 2 -3 7 2 10 11 7 17 1 20 -8 4z"/>
<path d="M3735 580 c-3 -5 -1 -10 4 -10 6 0 11 5 11 10 0 6 -2 10 -4 10 -3 0
-8 -4 -11 -10z"/>
<path d="M3780 566 c0 -2 8 -10 18 -17 15 -13 16 -12 3 4 -13 16 -21 21 -21
13z"/>
<path d="M3610 539 c0 -5 5 -7 10 -4 6 3 10 8 10 11 0 2 -4 4 -10 4 -5 0 -10
-5 -10 -11z"/>
<path d="M3650 539 c0 -5 5 -7 10 -4 6 3 10 8 10 11 0 2 -4 4 -10 4 -5 0 -10
-5 -10 -11z"/>
<path d="M3695 540 c-3 -5 -1 -10 4 -10 6 0 11 5 11 10 0 6 -2 10 -4 10 -3 0
-8 -4 -11 -10z"/>
<path d="M3730 539 c0 -5 5 -7 10 -4 6 3 10 8 10 11 0 2 -4 4 -10 4 -5 0 -10
-5 -10 -11z"/>
<path d="M3575 500 c-3 -5 -1 -10 4 -10 6 0 11 5 11 10 0 6 -2 10 -4 10 -3 0
-8 -4 -11 -10z"/>
<path d="M3615 500 c-3 -5 -1 -10 4 -10 6 0 11 5 11 10 0 6 -2 10 -4 10 -3 0
-8 -4 -11 -10z"/>
<path d="M3650 499 c0 -5 5 -7 10 -4 6 3 10 8 10 11 0 2 -4 4 -10 4 -5 0 -10
-5 -10 -11z"/>
<path d="M3695 500 c-3 -5 -1 -10 4 -10 6 0 11 5 11 10 0 6 -2 10 -4 10 -3 0
-8 -4 -11 -10z"/>
<path d="M1495 460 c-3 -5 -1 -10 4 -10 6 0 11 5 11 10 0 6 -2 10 -4 10 -3 0
-8 -4 -11 -10z"/>
<path d="M1695 460 c-3 -5 -1 -10 4 -10 6 0 11 5 11 10 0 6 -2 10 -4 10 -3 0
-8 -4 -11 -10z"/>
<path d="M3415 460 c-3 -5 -1 -10 4 -10 6 0 11 5 11 10 0 6 -2 10 -4 10 -3 0
-8 -4 -11 -10z"/>
<path d="M3455 460 c-3 -5 -1 -10 4 -10 6 0 11 5 11 10 0 6 -2 10 -4 10 -3 0
-8 -4 -11 -10z"/>
<path d="M3490 460 c0 -5 5 -10 11 -10 5 0 7 5 4 10 -3 6 -8 10 -11 10 -2 0
-4 -4 -4 -10z"/>
<path d="M1695 420 c-3 -5 -1 -10 4 -10 6 0 11 5 11 10 0 6 -2 10 -4 10 -3 0
-8 -4 -11 -10z"/>
<path d="M1735 420 c-3 -5 -1 -10 4 -10 6 0 11 5 11 10 0 6 -2 10 -4 10 -3 0
-8 -4 -11 -10z"/>
<path d="M3415 420 c-3 -5 -1 -10 4 -10 6 0 11 5 11 10 0 6 -2 10 -4 10 -3 0
-8 -4 -11 -10z"/>
<path d="M3450 419 c0 -5 5 -7 10 -4 6 3 10 8 10 11 0 2 -4 4 -10 4 -5 0 -10
-5 -10 -11z"/>
<path d="M3495 420 c3 -5 8 -10 11 -10 2 0 4 5 4 10 0 6 -5 10 -11 10 -5 0 -7
-4 -4 -10z"/>
<path d="M1735 380 c3 -5 8 -10 11 -10 2 0 4 5 4 10 0 6 -5 10 -11 10 -5 0 -7
-4 -4 -10z"/>
<path d="M1735 340 c3 -5 8 -10 11 -10 2 0 4 5 4 10 0 6 -5 10 -11 10 -5 0 -7
-4 -4 -10z"/>
<path d="M3067 319 c7 -7 15 -10 18 -7 3 3 -2 9 -12 12 -14 6 -15 5 -6 -5z"/>
<path d="M2570 300 c0 -5 5 -10 11 -10 5 0 7 5 4 10 -3 6 -8 10 -11 10 -2 0
-4 -4 -4 -10z"/>
<path d="M2610 300 c0 -5 5 -10 11 -10 5 0 7 5 4 10 -3 6 -8 10 -11 10 -2 0
-4 -4 -4 -10z"/>
<path d="M2650 300 c0 -5 5 -10 11 -10 5 0 7 5 4 10 -3 6 -8 10 -11 10 -2 0
-4 -4 -4 -10z"/>
<path d="M2730 300 c0 -5 5 -10 11 -10 5 0 7 5 4 10 -3 6 -8 10 -11 10 -2 0
-4 -4 -4 -10z"/>
<path d="M2235 289 c-4 -6 -5 -12 -2 -15 2 -3 7 2 10 11 7 17 1 20 -8 4z"/>
<path d="M2155 280 c3 -5 8 -10 11 -10 2 0 4 5 4 10 0 6 -5 10 -11 10 -5 0 -7
-4 -4 -10z"/>
<path d="M2190 280 c0 -5 5 -10 11 -10 5 0 7 5 4 10 -3 6 -8 10 -11 10 -2 0
-4 -4 -4 -10z"/>
<path d="M2395 280 c3 -5 8 -10 11 -10 2 0 4 5 4 10 0 6 -5 10 -11 10 -5 0 -7
-4 -4 -10z"/>
<path d="M2995 280 c-3 -5 -1 -10 4 -10 6 0 11 5 11 10 0 6 -2 10 -4 10 -3 0
-8 -4 -11 -10z"/>
<path d="M3030 279 c0 -5 5 -7 10 -4 6 3 10 8 10 11 0 2 -4 4 -10 4 -5 0 -10
-5 -10 -11z"/>
<path d="M2570 259 c0 -5 5 -7 10 -4 6 3 10 8 10 11 0 2 -4 4 -10 4 -5 0 -10
-5 -10 -11z"/>
<path d="M2615 260 c3 -5 8 -10 11 -10 2 0 4 5 4 10 0 6 -5 10 -11 10 -5 0 -7
-4 -4 -10z"/>
<path d="M2650 260 c0 -5 5 -10 11 -10 5 0 7 5 4 10 -3 6 -8 10 -11 10 -2 0
-4 -4 -4 -10z"/>
<path d="M2730 260 c0 -5 5 -10 11 -10 5 0 7 5 4 10 -3 6 -8 10 -11 10 -2 0
-4 -4 -4 -10z"/>
<path d="M3135 260 c-3 -5 -1 -10 4 -10 6 0 11 5 11 10 0 6 -2 10 -4 10 -3 0
-8 -4 -11 -10z"/>
<path d="M2113 247 c0 -8 6 -14 14 -14 9 0 10 4 2 14 -6 7 -12 13 -14 13 -1 0
-2 -6 -2 -13z"/>
<path d="M2235 249 c-4 -6 -5 -12 -2 -15 2 -3 7 2 10 11 7 17 1 20 -8 4z"/>
<path d="M2075 240 c3 -5 8 -10 11 -10 2 0 4 5 4 10 0 6 -5 10 -11 10 -5 0 -7
-4 -4 -10z"/>
<path d="M2919 233 c-13 -16 -12 -17 4 -4 9 7 17 15 17 17 0 8 -8 3 -21 -13z"/>
<path d="M2990 240 c0 -5 5 -10 11 -10 5 0 7 5 4 10 -3 6 -8 10 -11 10 -2 0
-4 -4 -4 -10z"/>
<path d="M3075 240 c3 -5 8 -10 11 -10 2 0 4 5 4 10 0 6 -5 10 -11 10 -5 0 -7
-4 -4 -10z"/>
<path d="M2570 219 c0 -5 5 -7 10 -4 6 3 10 8 10 11 0 2 -4 4 -10 4 -5 0 -10
-5 -10 -11z"/>
<path d="M2610 219 c0 -5 5 -7 10 -4 6 3 10 8 10 11 0 2 -4 4 -10 4 -5 0 -10
-5 -10 -11z"/>
<path d="M2735 220 c3 -5 8 -10 11 -10 2 0 4 5 4 10 0 6 -5 10 -11 10 -5 0 -7
-4 -4 -10z"/>
<path d="M2770 220 c0 -5 5 -10 11 -10 5 0 7 5 4 10 -3 6 -8 10 -11 10 -2 0
-4 -4 -4 -10z"/>
<path d="M2190 199 c0 -5 5 -7 10 -4 6 3 10 8 10 11 0 2 -4 4 -10 4 -5 0 -10
-5 -10 -11z"/>
<path d="M2455 180 c3 -5 8 -10 11 -10 2 0 4 5 4 10 0 6 -5 10 -11 10 -5 0 -7
-4 -4 -10z"/>
<path d="M2610 179 c0 -5 5 -7 10 -4 6 3 10 8 10 11 0 2 -4 4 -10 4 -5 0 -10
-5 -10 -11z"/>
<path d="M2655 180 c3 -5 8 -10 11 -10 2 0 4 5 4 10 0 6 -5 10 -11 10 -5 0 -7
-4 -4 -10z"/>
</g>
</svg>
